<?xml version="1.0" encoding="UTF-8"?>
<svg xmlns="http://www.w3.org/2000/svg" viewBox="0 0 128 128" fill="none" role="img" aria-labelledby="title desc">
<title id="title">শঙ্খ — Conch</title>
<desc id="desc">Flat devotional conch icon.</desc>
<path d="M31 77C44 84 61 84 77 77C91 71 99 57 94 44C89 31 76 23 62 25C47 27 35 36 31 48C27 60 28 70 31 77Z" fill="#FBF4E6" stroke="#24201D" stroke-width="5" stroke-linecap="round" stroke-linejoin="round"/><path d="M40 67C53 70 71 67 81 58C88 51 88 42 82 35M49 56C58 57 68 54 73 48C77 43 76 37 72 33" stroke="#8F241C" stroke-width="5" stroke-linecap="round" stroke-linejoin="round"/><path d="M49 56C58 57 68 54 73 48C77 43 76 37 72 33" stroke="#B08A3E" stroke-width="2.5" stroke-linecap="round" stroke-linejoin="round"/><circle cx="42" cy="75" r="3.5" fill="#C86A12"/>
</svg>
